# xmcd
#
# Track frame offsets:
#	150
#	20108
#	45943
#	62413
#	86405
#	116125
#	143445
#	168477
#	191262
#	211056
#
# Disc length: 3167 seconds
#
# Revision: 1
# Processed by: cddbd v1.5.1PL0 Copyright (c) Steve Scherf et al.
# Submitted via: audiograbber 1.83.01
#
DISCID=790c5d0a
DTITLE=Nick and The Backbone - Crackin' Under Pressure
DYEAR=2000
DGENRE=Blues
TTITLE0=Just A Little Time
TTITLE1=Blades (Instrumental)
TTITLE2=Ridin' With The Blues
TTITLE3=Crackin' Under Pressure
TTITLE4=The Dream That Is Gone
TTITLE5=Big Voices
TTITLE6=Slow Down
TTITLE7=You Don't Want To Mess With Me
TTITLE8=Can't Find A Way To Love You
TTITLE9=Heaven's Gate
EXTD=
EXTT0=
EXTT1=
EXTT2=
EXTT3=
EXTT4=
EXTT5=
EXTT6=
EXTT7=
EXTT8=
EXTT9=
PLAYORDER=
